<mxfile host="app.diagrams.net" modified="2023-01-03T03:39:18.068Z" agent="5.0 (Windows NT 10.0; Win64; x64) AppleWebKit/537.36 (KHTML, like Gecko) Chrome/108.0.0.0 Safari/537.36" etag="N3np9FUA89CoimpAM49K" version="20.5.1" type="github">
  <diagram id="ii7lFE6ZZYYBmCmppfYw" name="Page-1">
    <mxGraphModel dx="852" dy="493" grid="1" gridSize="10" guides="1" tooltips="1" connect="1" arrows="1" fold="1" page="1" pageScale="1" pageWidth="850" pageHeight="1100" math="0" shadow="0">
      <root>
        <mxCell id="0" />
        <mxCell id="1" parent="0" />
        <mxCell id="581w8BlQVOQLQmXXiZp2-18" value="" style="rounded=0;whiteSpace=wrap;html=1;dashed=1;dashPattern=1 1;fillColor=#FFFFFF;strokeColor=#23497D;" vertex="1" parent="1">
          <mxGeometry x="550" y="320" width="845" height="465" as="geometry" />
        </mxCell>
        <mxCell id="581w8BlQVOQLQmXXiZp2-127" value="" style="edgeStyle=orthogonalEdgeStyle;rounded=0;orthogonalLoop=1;jettySize=auto;html=1;fontColor=#FFFFFF;" edge="1" parent="1" source="581w8BlQVOQLQmXXiZp2-108" target="581w8BlQVOQLQmXXiZp2-122">
          <mxGeometry relative="1" as="geometry" />
        </mxCell>
        <mxCell id="581w8BlQVOQLQmXXiZp2-108" value="&lt;font color=&quot;#23497d&quot;&gt;Preparation&lt;/font&gt;" style="swimlane;whiteSpace=wrap;fillColor=none;swimlaneFillColor=#BAC8D3;fontColor=#2F5B7C;fontFamily=Tahoma;html=1;strokeColor=none;opacity=50;" vertex="1" parent="1">
          <mxGeometry x="570" y="327.31" width="180" height="435.38" as="geometry">
            <mxRectangle x="20" y="20" width="80" height="23" as="alternateBounds" />
          </mxGeometry>
        </mxCell>
        <mxCell id="581w8BlQVOQLQmXXiZp2-109" value="Get DMS API Uri" style="whiteSpace=wrap;shadow=0;fontColor=#FFFFFF;fontFamily=Helvetica;fontStyle=0;html=1;fontSize=12;plain-purple;strokeColor=none;fillColor=#2f5b7c;gradientColor=none;spacing=6;verticalAlign=middle;" vertex="1" parent="581w8BlQVOQLQmXXiZp2-108">
          <mxGeometry x="27" y="68" width="126" height="40" as="geometry" />
        </mxCell>
        <mxCell id="581w8BlQVOQLQmXXiZp2-114" value="Make Request Body including sort, limit and offset" style="whiteSpace=wrap;shadow=0;fontColor=#FFFFFF;fontFamily=Helvetica;fontStyle=0;html=1;fontSize=12;plain-purple;strokeColor=none;fillColor=#2f5b7c;gradientColor=none;spacing=6;verticalAlign=middle;" vertex="1" parent="581w8BlQVOQLQmXXiZp2-108">
          <mxGeometry x="27" y="158" width="126" height="60" as="geometry" />
        </mxCell>
        <mxCell id="581w8BlQVOQLQmXXiZp2-145" value="Get Token" style="whiteSpace=wrap;shadow=0;fontColor=#FFFFFF;fontFamily=Helvetica;fontStyle=0;html=1;fontSize=12;plain-purple;strokeColor=none;fillColor=#2f5b7c;gradientColor=none;spacing=6;verticalAlign=middle;" vertex="1" parent="581w8BlQVOQLQmXXiZp2-108">
          <mxGeometry x="27" y="258" width="126" height="40" as="geometry" />
        </mxCell>
        <mxCell id="581w8BlQVOQLQmXXiZp2-146" value="Data Partition Id" style="whiteSpace=wrap;shadow=0;fontColor=#FFFFFF;fontFamily=Helvetica;fontStyle=0;html=1;fontSize=12;plain-purple;strokeColor=none;fillColor=#2f5b7c;gradientColor=none;spacing=6;verticalAlign=middle;" vertex="1" parent="581w8BlQVOQLQmXXiZp2-108">
          <mxGeometry x="27" y="338" width="126" height="40" as="geometry" />
        </mxCell>
        <mxCell id="581w8BlQVOQLQmXXiZp2-142" value="" style="edgeStyle=orthogonalEdgeStyle;rounded=0;orthogonalLoop=1;jettySize=auto;html=1;fontSize=11;fontColor=#B266FF;" edge="1" parent="1" source="581w8BlQVOQLQmXXiZp2-122" target="581w8BlQVOQLQmXXiZp2-137">
          <mxGeometry relative="1" as="geometry" />
        </mxCell>
        <mxCell id="581w8BlQVOQLQmXXiZp2-122" value="&lt;font color=&quot;#23497d&quot;&gt;Response&lt;/font&gt;" style="swimlane;whiteSpace=wrap;fillColor=none;swimlaneFillColor=#BAC8D3;fontColor=#FFFFFF;fontFamily=Tahoma;html=1;strokeColor=none;opacity=50;startSize=23;" vertex="1" parent="1">
          <mxGeometry x="840" y="329.25" width="250" height="431.5" as="geometry">
            <mxRectangle x="20" y="20" width="80" height="23" as="alternateBounds" />
          </mxGeometry>
        </mxCell>
        <mxCell id="581w8BlQVOQLQmXXiZp2-123" value="Get Response Body through Post API&amp;nbsp;" style="whiteSpace=wrap;shadow=0;fontColor=#FFFFFF;fontFamily=Helvetica;fontStyle=0;html=1;fontSize=12;plain-purple;strokeColor=none;fillColor=#2f5b7c;gradientColor=none;spacing=6;verticalAlign=middle;" vertex="1" parent="581w8BlQVOQLQmXXiZp2-122">
          <mxGeometry x="100" y="80" width="126" height="60" as="geometry" />
        </mxCell>
        <mxCell id="581w8BlQVOQLQmXXiZp2-124" value="&lt;font style=&quot;font-size: 11px;&quot;&gt;Save the data obtained, and compare the count of data with the total number of records&lt;/font&gt;" style="whiteSpace=wrap;shadow=0;fontColor=#FFFFFF;fontFamily=Helvetica;fontStyle=0;html=1;fontSize=12;plain-purple;strokeColor=none;fillColor=#2f5b7c;gradientColor=none;spacing=6;verticalAlign=middle;" vertex="1" parent="581w8BlQVOQLQmXXiZp2-122">
          <mxGeometry x="93.5" y="210" width="132.5" height="70" as="geometry" />
        </mxCell>
        <mxCell id="581w8BlQVOQLQmXXiZp2-134" value="&lt;p style=&quot;line-height: 1.1;&quot;&gt;&lt;font color=&quot;#b266ff&quot;&gt;&amp;nbsp; &amp;nbsp; &amp;nbsp; &amp;nbsp; &amp;nbsp; &amp;nbsp; &amp;nbsp; &amp;nbsp; &amp;nbsp; &amp;nbsp; &amp;nbsp; &amp;nbsp; &amp;nbsp;&lt;/font&gt;&lt;/p&gt;&lt;p style=&quot;line-height: 1.1;&quot;&gt;&lt;span style=&quot;color: rgb(178, 102, 255); white-space: pre;&quot;&gt;	&lt;/span&gt;&lt;span style=&quot;color: rgb(178, 102, 255); white-space: pre;&quot;&gt;	&lt;/span&gt;&lt;span style=&quot;color: rgb(178, 102, 255); white-space: pre;&quot;&gt;	&lt;/span&gt;&lt;font color=&quot;#23497d&quot;&gt;Repeat until we &lt;br&gt;&amp;nbsp; &amp;nbsp; &amp;nbsp; &amp;nbsp; &amp;nbsp; &amp;nbsp; &amp;nbsp; &amp;nbsp; &amp;nbsp; &amp;nbsp; &amp;nbsp; &amp;nbsp; &amp;nbsp; get total records&lt;/font&gt;&lt;/p&gt;" style="html=1;shadow=0;dashed=1;align=center;verticalAlign=middle;shape=mxgraph.arrows2.uTurnArrow;dy=11;arrowHead=43;dx2=25;fontColor=#FFFFFF;fillColor=#FFFFFF;direction=east;fontStyle=1;strokeColor=#23497D;" vertex="1" parent="581w8BlQVOQLQmXXiZp2-122">
          <mxGeometry x="10" y="100" width="80" height="140" as="geometry" />
        </mxCell>
        <mxCell id="581w8BlQVOQLQmXXiZp2-136" value="" style="html=1;shadow=0;dashed=1;align=center;verticalAlign=middle;shape=mxgraph.arrows2.arrow;dy=0.6;dx=40;direction=south;notch=0;strokeColor=#23497D;fontColor=#B266FF;fillColor=#FFFFFF;" vertex="1" parent="581w8BlQVOQLQmXXiZp2-122">
          <mxGeometry x="150" y="140" width="40" height="70" as="geometry" />
        </mxCell>
        <mxCell id="581w8BlQVOQLQmXXiZp2-137" value="&lt;font color=&quot;#23497d&quot;&gt;Generate CSV File&lt;/font&gt;" style="swimlane;whiteSpace=wrap;fillColor=none;swimlaneFillColor=#BAC8D3;fontColor=#B266FF;fontFamily=Tahoma;html=1;strokeColor=none;opacity=50;startSize=23;fontSize=11;" vertex="1" parent="1">
          <mxGeometry x="1180" y="330" width="190" height="430" as="geometry">
            <mxRectangle x="20" y="20" width="80" height="23" as="alternateBounds" />
          </mxGeometry>
        </mxCell>
        <mxCell id="581w8BlQVOQLQmXXiZp2-138" value="Write the entire records into CSV file" style="whiteSpace=wrap;shadow=0;fontColor=#FFFFFF;fontFamily=Helvetica;fontStyle=0;html=1;fontSize=12;plain-purple;strokeColor=none;fillColor=#2f5b7c;gradientColor=none;spacing=6;verticalAlign=middle;" vertex="1" parent="581w8BlQVOQLQmXXiZp2-137">
          <mxGeometry x="27.5" y="185" width="126" height="60" as="geometry" />
        </mxCell>
        <mxCell id="581w8BlQVOQLQmXXiZp2-168" value="" style="edgeStyle=orthogonalEdgeStyle;rounded=0;orthogonalLoop=1;jettySize=auto;html=1;fontSize=11;fontColor=#23497D;" edge="1" parent="1" source="581w8BlQVOQLQmXXiZp2-166">
          <mxGeometry relative="1" as="geometry">
            <mxPoint x="990" y="160" as="targetPoint" />
          </mxGeometry>
        </mxCell>
        <mxCell id="581w8BlQVOQLQmXXiZp2-166" value="Tallix DataBase" style="shape=ext;double=1;rounded=0;whiteSpace=wrap;html=1;fillColor=#ffe6cc;strokeColor=#d79b00;" vertex="1" parent="1">
          <mxGeometry x="930" y="20" width="120" height="80" as="geometry" />
        </mxCell>
        <mxCell id="581w8BlQVOQLQmXXiZp2-167" value="RP Performance DMS DataBase" style="shape=ext;double=1;rounded=0;whiteSpace=wrap;html=1;fillColor=#ffe6cc;strokeColor=#d79b00;" vertex="1" parent="1">
          <mxGeometry x="931.25" y="160" width="120" height="80" as="geometry" />
        </mxCell>
        <mxCell id="581w8BlQVOQLQmXXiZp2-169" value="" style="edgeStyle=orthogonalEdgeStyle;rounded=0;orthogonalLoop=1;jettySize=auto;html=1;fontSize=11;fontColor=#23497D;exitX=0.5;exitY=1;exitDx=0;exitDy=0;" edge="1" parent="1" source="581w8BlQVOQLQmXXiZp2-167">
          <mxGeometry relative="1" as="geometry">
            <mxPoint x="990" y="250" as="sourcePoint" />
            <mxPoint x="990" y="300" as="targetPoint" />
            <Array as="points">
              <mxPoint x="990" y="240" />
            </Array>
          </mxGeometry>
        </mxCell>
        <mxCell id="581w8BlQVOQLQmXXiZp2-208" value="" style="edgeStyle=orthogonalEdgeStyle;rounded=0;orthogonalLoop=1;jettySize=auto;html=1;fontSize=11;fontColor=#23497D;" edge="1" parent="1" source="581w8BlQVOQLQmXXiZp2-183" target="581w8BlQVOQLQmXXiZp2-205">
          <mxGeometry relative="1" as="geometry">
            <Array as="points">
              <mxPoint x="990" y="1250" />
              <mxPoint x="990" y="1250" />
            </Array>
          </mxGeometry>
        </mxCell>
        <mxCell id="581w8BlQVOQLQmXXiZp2-183" value="" style="rounded=0;whiteSpace=wrap;html=1;dashed=1;dashPattern=1 1;fillColor=#FFFFFF;strokeColor=#23497D;" vertex="1" parent="1">
          <mxGeometry x="850" y="870" width="280" height="350" as="geometry" />
        </mxCell>
        <mxCell id="581w8BlQVOQLQmXXiZp2-184" value="Azure Blob" style="rounded=1;whiteSpace=wrap;html=1;dashed=1;dashPattern=1 1;fillColor=#ffe6cc;strokeColor=#d79b00;" vertex="1" parent="1">
          <mxGeometry x="942.5" y="850" width="97.5" height="30" as="geometry" />
        </mxCell>
        <mxCell id="581w8BlQVOQLQmXXiZp2-185" value="&lt;font color=&quot;#23497d&quot;&gt;File Transfer&lt;/font&gt;" style="swimlane;whiteSpace=wrap;fillColor=none;swimlaneFillColor=#BAC8D3;fontColor=#2F5B7C;fontFamily=Tahoma;html=1;strokeColor=none;opacity=50;" vertex="1" parent="1">
          <mxGeometry x="903.75" y="890" width="166.25" height="290" as="geometry">
            <mxRectangle x="20" y="20" width="80" height="23" as="alternateBounds" />
          </mxGeometry>
        </mxCell>
        <mxCell id="581w8BlQVOQLQmXXiZp2-186" value="" style="edgeStyle=orthogonalEdgeStyle;rounded=0;orthogonalLoop=1;jettySize=auto;html=1;fontSize=11;fontColor=#23497D;" edge="1" parent="581w8BlQVOQLQmXXiZp2-185" source="581w8BlQVOQLQmXXiZp2-187" target="581w8BlQVOQLQmXXiZp2-188">
          <mxGeometry relative="1" as="geometry">
            <Array as="points">
              <mxPoint x="85" y="170" />
              <mxPoint x="86" y="170" />
            </Array>
          </mxGeometry>
        </mxCell>
        <mxCell id="581w8BlQVOQLQmXXiZp2-187" value="Processors Upload the CSV files to the Azure Blob" style="whiteSpace=wrap;shadow=0;fontColor=#FFFFFF;fontFamily=Helvetica;fontStyle=0;html=1;fontSize=12;plain-purple;strokeColor=none;fillColor=#2f5b7c;gradientColor=none;spacing=6;verticalAlign=middle;" vertex="1" parent="581w8BlQVOQLQmXXiZp2-185">
          <mxGeometry x="20" y="60" width="130" height="80" as="geometry" />
        </mxCell>
        <mxCell id="581w8BlQVOQLQmXXiZp2-188" value="Power BI Reads CSV files from Azure Blob" style="whiteSpace=wrap;shadow=0;fontColor=#FFFFFF;fontFamily=Helvetica;fontStyle=0;html=1;fontSize=12;plain-purple;strokeColor=none;fillColor=#2f5b7c;gradientColor=none;spacing=6;verticalAlign=middle;" vertex="1" parent="581w8BlQVOQLQmXXiZp2-185">
          <mxGeometry x="20" y="200" width="130" height="60" as="geometry" />
        </mxCell>
        <mxCell id="581w8BlQVOQLQmXXiZp2-189" value="" style="edgeStyle=orthogonalEdgeStyle;rounded=0;orthogonalLoop=1;jettySize=auto;html=1;fontSize=11;fontColor=#23497D;exitX=0.521;exitY=0.998;exitDx=0;exitDy=0;exitPerimeter=0;" edge="1" parent="1" source="581w8BlQVOQLQmXXiZp2-18">
          <mxGeometry relative="1" as="geometry">
            <mxPoint x="990" y="790" as="sourcePoint" />
            <mxPoint x="990.25" y="850" as="targetPoint" />
            <Array as="points" />
          </mxGeometry>
        </mxCell>
        <mxCell id="581w8BlQVOQLQmXXiZp2-19" value="Processors" style="rounded=1;whiteSpace=wrap;html=1;dashed=1;dashPattern=1 1;fillColor=#ffe6cc;strokeColor=#d79b00;" vertex="1" parent="1">
          <mxGeometry x="940" y="300" width="97.5" height="30" as="geometry" />
        </mxCell>
        <mxCell id="581w8BlQVOQLQmXXiZp2-204" value="" style="rounded=0;whiteSpace=wrap;html=1;dashed=1;dashPattern=1 1;fillColor=#FFFFFF;strokeColor=#23497D;" vertex="1" parent="1">
          <mxGeometry x="846.88" y="1280" width="280" height="250" as="geometry" />
        </mxCell>
        <mxCell id="581w8BlQVOQLQmXXiZp2-205" value="Power BI" style="rounded=1;whiteSpace=wrap;html=1;dashed=1;dashPattern=1 1;fillColor=#ffe6cc;strokeColor=#d79b00;" vertex="1" parent="1">
          <mxGeometry x="949.38" y="1260" width="97.5" height="30" as="geometry" />
        </mxCell>
        <mxCell id="581w8BlQVOQLQmXXiZp2-206" value="&lt;font color=&quot;#23497d&quot;&gt;Dashboard Display&lt;/font&gt;" style="swimlane;whiteSpace=wrap;fillColor=none;swimlaneFillColor=#BAC8D3;fontColor=#2F5B7C;fontFamily=Tahoma;html=1;strokeColor=none;opacity=50;" vertex="1" parent="1">
          <mxGeometry x="910.63" y="1300" width="166.25" height="190" as="geometry">
            <mxRectangle x="20" y="20" width="80" height="23" as="alternateBounds" />
          </mxGeometry>
        </mxCell>
        <mxCell id="581w8BlQVOQLQmXXiZp2-207" value="Display Dashboard" style="whiteSpace=wrap;shadow=0;fontColor=#FFFFFF;fontFamily=Helvetica;fontStyle=0;html=1;fontSize=12;plain-purple;strokeColor=none;fillColor=#2f5b7c;gradientColor=none;spacing=6;verticalAlign=middle;" vertex="1" parent="581w8BlQVOQLQmXXiZp2-206">
          <mxGeometry x="25" y="80" width="120" height="60" as="geometry" />
        </mxCell>
      </root>
    </mxGraphModel>
  </diagram>
</mxfile>
